# xmcd
#
# Track frame offsets: 
#        150
#        20635
#        32360
#        49460
#        65632
#        83432
#        94590
#        119650
#        135712
#        149590
#        167775
#        180295
#
# Disc length: 2607 seconds
#
# Revision: 2
# Processed by: cddbd v1.5.2PL0 Copyright (c) Steve Scherf et al.
# Submitted via: ExactAudioCopy v0.99pb4
#
DISCID=a30a2d0c
DTITLE=Michael Crawford - The Phantom Unmasked
DYEAR=1990
DGENRE=Classical
TTITLE0=I Dreamed A Dream
TTITLE1=What Are You Doing The Rest Of Your Life
TTITLE2=With You I'm Born Again
TTITLE3=Every Time We Say Goodbye
TTITLE4=The Story of My Life
TTITLE5=Being Alive
TTITLE6=Music of the Night
TTITLE7=When I Fall In Love
TTITLE8=If
TTITLE9=On My Own
TTITLE10=Why Didi I Choose You
TTITLE11=Come Rain or Come Shine
EXTD=
EXTT0=
EXTT1=
EXTT2=
EXTT3=
EXTT4=
EXTT5=
EXTT6=
EXTT7=
EXTT8=
EXTT9=
EXTT10=
EXTT11=
PLAYORDER=
